<svg width="40" height="41" viewBox="0 0 40 41" fill="none" xmlns="http://www.w3.org/2000/svg">
<rect y="0.5" width="40" height="40" rx="8" fill="#E9E9E9"/>
<path d="M7.54761 28.167H31.64V29.8097C31.64 30.2453 31.4669 30.6631 31.1589 30.9712C30.8508 31.2793 30.433 31.4523 29.9973 31.4523H9.19027C8.75461 31.4523 8.33679 31.2793 8.02873 30.9712C7.72067 30.6631 7.54761 30.2453 7.54761 29.8097V28.167Z" fill="#F8F9F9"/>
<path d="M10.2853 13.9307H28.9021C29.1926 13.9307 29.4711 14.046 29.6765 14.2514C29.8819 14.4568 29.9972 14.7353 29.9972 15.0258V28.1671H9.19019V15.0258C9.19019 14.7353 9.30556 14.4568 9.51094 14.2514C9.71631 14.046 9.99485 13.9307 10.2853 13.9307Z" fill="#BEC6C6"/>
<path d="M28.3545 26.5246V15.5735L10.8328 15.5735V26.5246H28.3545Z" fill="#F8F9F9"/>
<path d="M31.6399 27.6195H30.5448V15.0257C30.5448 14.5901 30.3718 14.1722 30.0637 13.8642C29.7556 13.5561 29.3378 13.3831 28.9022 13.3831H10.2853C9.84966 13.3831 9.43185 13.5561 9.12379 13.8642C8.81573 14.1722 8.64266 14.5901 8.64266 15.0257V27.6195H7.54755C7.40233 27.6195 7.26306 27.6772 7.16037 27.7798C7.05769 27.8825 7 28.0218 7 28.167V29.8097C7 30.3906 7.23075 30.9477 7.6415 31.3584C8.05224 31.7691 8.60933 31.9999 9.19022 31.9999H29.9973C30.5781 31.9999 31.1352 31.7691 31.546 31.3584C31.9567 30.9477 32.1875 30.3906 32.1875 29.8097V28.167C32.1875 28.0218 32.1298 27.8825 32.0271 27.7798C31.9244 27.6772 31.7852 27.6195 31.6399 27.6195ZM9.73777 15.0257C9.73777 14.8805 9.79546 14.7412 9.89814 14.6385C10.0008 14.5359 10.1401 14.4782 10.2853 14.4782H28.9022C29.0474 14.4782 29.1867 14.5359 29.2893 14.6385C29.392 14.7412 29.4497 14.8805 29.4497 15.0257V27.6195H9.73777V15.0257ZM31.0924 29.8097C31.0924 30.1001 30.977 30.3787 30.7716 30.584C30.5663 30.7894 30.2877 30.9048 29.9973 30.9048H9.19022C8.89978 30.9048 8.62123 30.7894 8.41586 30.584C8.21049 30.3787 8.09511 30.1001 8.09511 29.8097V28.7146H15.9142C16.0097 28.8801 16.1469 29.0177 16.3122 29.1138C16.4774 29.2098 16.6649 29.261 16.856 29.2621H22.3315C22.5226 29.261 22.7101 29.2098 22.8753 29.1138C23.0405 29.0177 23.1778 28.8801 23.2733 28.7146H31.0924V29.8097Z" fill="#414141"/>
<path d="M24.5219 13.9307C24.5224 13.0029 24.261 12.0938 23.7677 11.308C23.2744 10.5222 22.5693 9.89159 21.7336 9.48875C20.8978 9.08591 19.9652 8.92719 19.0432 9.03086C18.1213 9.13453 17.2473 9.49637 16.5218 10.0748C15.7963 10.6531 15.2489 11.4246 14.9425 12.3003C14.636 13.176 14.583 14.1205 14.7895 15.025C14.9961 15.9295 15.4538 16.7574 16.11 17.4133C16.7661 18.0692 17.5942 18.5266 18.4988 18.7328V19.9538H17.9512L17.6227 23.2391C17.5935 23.5154 17.6228 23.7948 17.7085 24.0591C17.7943 24.3234 17.9347 24.5667 18.1206 24.7732C18.3064 24.9797 18.5337 25.1448 18.7875 25.2579C19.0413 25.3709 19.316 25.4293 19.5939 25.4293C19.8717 25.4293 20.1465 25.3709 20.4003 25.2579C20.6541 25.1448 20.8813 24.9797 21.0672 24.7732C21.2531 24.5667 21.3934 24.3234 21.4792 24.0591C21.565 23.7948 21.5942 23.5154 21.5651 23.2391L21.2365 19.9538H20.689V18.7328C21.7773 18.4847 22.7491 17.8746 23.4454 17.0022C24.1417 16.1298 24.5212 15.0469 24.5219 13.9307Z" fill="#DE1B0A"/>
<path d="M19.5936 23.7868C19.896 23.7868 20.1411 23.5416 20.1411 23.2392C20.1411 22.9368 19.896 22.6917 19.5936 22.6917C19.2912 22.6917 19.046 22.9368 19.046 23.2392C19.046 23.5416 19.2912 23.7868 19.5936 23.7868Z" fill="#F8F9F9"/>
<path d="M19.5937 17.7634C21.7106 17.7634 23.4266 16.0474 23.4266 13.9305C23.4266 11.8137 21.7106 10.0977 19.5937 10.0977C17.4769 10.0977 15.7609 11.8137 15.7609 13.9305C15.7609 16.0474 17.4769 17.7634 19.5937 17.7634Z" fill="#F8F9F9"/>
<path d="M19.5938 11.1929C17.9511 11.1929 17.4474 13.3831 18.4987 13.3831C18.6439 13.3831 18.7832 13.3254 18.8859 13.2227C18.9886 13.12 19.0462 12.9808 19.0462 12.8355C19.0462 12.7272 19.0784 12.6214 19.1385 12.5313C19.1987 12.4413 19.2842 12.3711 19.3843 12.3297C19.4843 12.2882 19.5944 12.2774 19.7006 12.2985C19.8068 12.3196 19.9044 12.3718 19.981 12.4484C20.0576 12.5249 20.1097 12.6225 20.1308 12.7287C20.152 12.8349 20.1411 12.945 20.0997 13.0451C20.0582 13.1451 19.9881 13.2306 19.898 13.2908C19.808 13.351 19.7021 13.3831 19.5938 13.3831C19.4486 13.3831 19.3093 13.4408 19.2066 13.5435C19.1039 13.6462 19.0462 13.7854 19.0462 13.9306V14.4782C19.0462 14.6234 19.1039 14.7627 19.2066 14.8654C19.3093 14.9681 19.4486 15.0258 19.5938 15.0258C19.739 15.0258 19.8783 14.9681 19.981 14.8654C20.0837 14.7627 20.1414 14.6234 20.1414 14.4782V14.3851C20.5073 14.2564 20.8159 14.0023 21.0124 13.6678C21.209 13.3334 21.2808 12.9402 21.2153 12.5578C21.1497 12.1755 20.9509 11.8287 20.6541 11.5789C20.3573 11.329 19.9817 11.1923 19.5938 11.1929Z" fill="#BEC6C6"/>
<path d="M19.5936 16.6686C19.896 16.6686 20.1411 16.4234 20.1411 16.121C20.1411 15.8186 19.896 15.5735 19.5936 15.5735C19.2912 15.5735 19.046 15.8186 19.046 16.121C19.046 16.4234 19.2912 16.6686 19.5936 16.6686Z" fill="#BEC6C6"/>
</svg>
