<svg width="28" height="11" viewBox="0 0 28 11" fill="none" xmlns="http://www.w3.org/2000/svg">
  <path
    d="M26.8333 2.44444H1.16667C0.522668 2.44444 9.53674e-07 1.89689 9.53674e-07 1.22222C9.53674e-07 0.547556 0.522668 0 1.16667 0H14H26.8333C27.4773 0 28 0.547556 28 1.22222C28 1.89689 27.4773 2.44444 26.8333 2.44444ZM28 9.77778C28 9.10311 27.4773 8.55556 26.8333 8.55556H1.16667C0.522668 8.55556 9.53674e-07 9.10311 9.53674e-07 9.77778C9.53674e-07 10.4524 0.522668 11 1.16667 11H26.8333C27.4773 11 28 10.4524 28 9.77778Z"
    fill="currentColor" />
</svg>