<svg width="64" height="64" viewBox="0 0 64 64" fill="none" xmlns="http://www.w3.org/2000/svg">
<rect x="6" y="12" width="48" height="40" rx="5" fill="#DE1B0A"/>
<path d="M12.5 20C13.3284 20 14 19.3284 14 18.5C14 17.6716 13.3284 17 12.5 17C11.6716 17 11 17.6716 11 18.5C11 19.3284 11.6716 20 12.5 20Z" fill="white"/>
<path d="M17.5 20C18.3284 20 19 19.3284 19 18.5C19 17.6716 18.3284 17 17.5 17C16.6716 17 16 17.6716 16 18.5C16 19.3284 16.6716 20 17.5 20Z" fill="white"/>
<path d="M22.5 20C23.3284 20 24 19.3284 24 18.5C24 17.6716 23.3284 17 22.5 17C21.6716 17 21 17.6716 21 18.5C21 19.3284 21.6716 20 22.5 20Z" fill="white"/>
<path d="M29.0779 23.5467C29.1638 22.2082 30.2235 21.1914 31.5482 20.9813C33.0166 20.7484 34.9288 20.3953 36.4019 19.9493C38.2097 19.4019 40.6785 18.3141 42.1773 17.6236C43.016 17.2371 43.984 17.2371 44.8227 17.6236C46.3215 18.3141 48.7903 19.4019 50.5981 19.9493C52.0712 20.3953 53.9834 20.7484 55.4518 20.9813C56.7765 21.1914 57.8362 22.2082 57.9221 23.5467C58.2898 29.2723 57.8912 44.2668 44.3335 48.743C43.7991 48.9195 43.201 48.9195 42.6665 48.743C29.1088 44.2668 28.7102 29.2723 29.0779 23.5467Z" fill="#C8D1EA"/>
<path d="M45.0995 21.7678C45.6438 22.0201 46.2741 22.3036 46.9042 22.5647L41.5927 44.2893C40.96 44.0027 40.3728 43.6807 39.828 43.3274L45.0995 21.7678ZM38.1464 42.0276C36.8512 40.8407 35.8724 39.4516 35.1356 37.9817L38.7811 23.0706C39.8696 22.6907 41.1752 22.11 42.1366 21.6594C42.4741 21.5012 42.833 21.4058 43.1962 21.3713L38.1464 42.0276Z" fill="white"/>
<path d="M33.0268 26.4791C33.0835 25.1377 34.1414 24.1162 35.4631 23.8801C36.4091 23.7111 37.4902 23.4847 38.36 23.2119C39.5168 22.8492 41.0474 22.1699 42.1368 21.6594C42.9996 21.255 44.0004 21.255 44.8632 21.6594C45.9526 22.1699 47.4832 22.8492 48.64 23.2119C49.5098 23.4847 50.5909 23.7111 51.5369 23.8801C52.8586 24.1162 53.9165 25.1377 53.9732 26.4791C54.1678 31.0821 53.5256 41.4032 44.3532 44.7195C43.8058 44.9174 43.1942 44.9174 42.6468 44.7195C33.4744 41.4032 32.8322 31.0821 33.0268 26.4791Z" stroke="#DE1B0A" stroke-width="2"/>
</svg>
