<svg width="32" height="33" viewBox="0 0 32 33" fill="none" xmlns="http://www.w3.org/2000/svg">
<path d="M0 16.1362C0 7.29967 7.16344 0.13623 16 0.13623C24.8366 0.13623 32 7.29967 32 16.1362C32 24.9728 24.8366 32.1362 16 32.1362C7.16344 32.1362 0 24.9728 0 16.1362Z" fill="#59D963" fill-opacity="0.2"/>
<g clip-path="url(#clip0_45_1501)">
<path d="M8.20567 18.0965L11.2583 21.1492C12.1168 22.0073 13.5083 22.0073 14.3667 21.1492L23.7943 11.7215C24.0755 11.4304 24.0674 10.9666 23.7763 10.6854C23.4923 10.4112 23.0421 10.4112 22.7582 10.6854L13.3306 20.1131C13.0444 20.3991 12.5806 20.3991 12.2945 20.1131L9.24181 17.0604C8.95071 16.7793 8.48684 16.7873 8.20571 17.0784C7.93144 17.3624 7.93144 17.8126 8.20567 18.0965Z" fill="#59D963"/>
</g>
<defs>
<clipPath id="clip0_45_1501">
<rect width="16" height="16" fill="white" transform="translate(8 8.13623)"/>
</clipPath>
</defs>
</svg>
