<svg width="40" height="41" viewBox="0 0 40 41" fill="none" xmlns="http://www.w3.org/2000/svg">
<rect y="0.136475" width="40" height="40" rx="8" fill="#E9E9E9"/>
<path d="M31.4602 11.5688H8.70653C8.07821 11.5688 7.56885 12.0782 7.56885 12.7065V27.4964C7.56885 28.1248 8.07821 28.6341 8.70653 28.6341H31.4602C32.0886 28.6341 32.5979 28.1248 32.5979 27.4964V12.7065C32.5979 12.0782 32.0886 11.5688 31.4602 11.5688Z" fill="#F8F9F9"/>
<path d="M32.5979 14.4131H7.56885V17.8261H32.5979V14.4131Z" fill="#DE1B0A"/>
<path d="M31.4602 11H8.70653C8.25393 11 7.81987 11.1798 7.49983 11.4998C7.17979 11.8199 7 12.2539 7 12.7065V27.4964C7 27.949 7.17979 28.3831 7.49983 28.7031C7.81987 29.0232 8.25393 29.203 8.70653 29.203H31.4602C31.9128 29.203 32.3469 29.0232 32.6669 28.7031C32.987 28.3831 33.1667 27.949 33.1667 27.4964V12.7065C33.1667 12.2539 32.987 11.8199 32.6669 11.4998C32.3469 11.1798 31.9128 11 31.4602 11ZM8.70653 12.1377H31.4602C31.6111 12.1377 31.7558 12.1976 31.8625 12.3043C31.9691 12.411 32.0291 12.5557 32.0291 12.7065V13.8442H8.13768V12.7065C8.13768 12.5557 8.19762 12.411 8.30429 12.3043C8.41097 12.1976 8.55566 12.1377 8.70653 12.1377ZM32.0291 17.2573H8.13768V14.9819H32.0291V17.2573ZM31.4602 28.0653H8.70653C8.55566 28.0653 8.41097 28.0053 8.30429 27.8987C8.19762 27.792 8.13768 27.6473 8.13768 27.4964V18.395H32.0291V27.4964C32.0291 27.6473 31.9691 27.792 31.8625 27.8987C31.7558 28.0053 31.6111 28.0653 31.4602 28.0653Z" fill="#414141"/>
<path d="M27.4783 23.5144C28.1066 23.5144 28.6159 23.005 28.6159 22.3767C28.6159 21.7484 28.1066 21.239 27.4783 21.239C26.8499 21.239 26.3406 21.7484 26.3406 22.3767C26.3406 23.005 26.8499 23.5144 27.4783 23.5144Z" fill="#F8F9F9"/>
<path d="M20.0833 20.6704H9.84411C9.69324 20.6704 9.54856 20.6105 9.44188 20.5038C9.3352 20.3971 9.27527 20.2524 9.27527 20.1016C9.27527 19.9507 9.3352 19.806 9.44188 19.6993C9.54856 19.5926 9.69324 19.5327 9.84411 19.5327H20.0833C20.2341 19.5327 20.3788 19.5926 20.4855 19.6993C20.5922 19.806 20.6521 19.9507 20.6521 20.1016C20.6521 20.2524 20.5922 20.3971 20.4855 20.5038C20.3788 20.6105 20.2341 20.6704 20.0833 20.6704Z" fill="#BEC6C6"/>
<path d="M13.2572 24.0832H9.84411C9.69324 24.0832 9.54856 24.0233 9.44188 23.9166C9.3352 23.81 9.27527 23.6653 9.27527 23.5144C9.27527 23.3635 9.3352 23.2188 9.44188 23.1122C9.54856 23.0055 9.69324 22.9456 9.84411 22.9456H13.2572C13.408 22.9456 13.5527 23.0055 13.6594 23.1122C13.7661 23.2188 13.826 23.3635 13.826 23.5144C13.826 23.6653 13.7661 23.81 13.6594 23.9166C13.5527 24.0233 13.408 24.0832 13.2572 24.0832Z" fill="#BEC6C6"/>
<path d="M17.8079 26.3586H9.84411C9.69324 26.3586 9.54856 26.2987 9.44188 26.192C9.3352 26.0853 9.27527 25.9407 9.27527 25.7898C9.27527 25.6389 9.3352 25.4942 9.44188 25.3876C9.54856 25.2809 9.69324 25.2209 9.84411 25.2209H17.8079C17.9588 25.2209 18.1035 25.2809 18.2101 25.3876C18.3168 25.4942 18.3767 25.6389 18.3767 25.7898C18.3767 25.9407 18.3168 26.0853 18.2101 26.192C18.1035 26.2987 17.9588 26.3586 17.8079 26.3586Z" fill="#BEC6C6"/>
</svg>
