<svg width="32" height="33" viewBox="0 0 32 33" fill="none" xmlns="http://www.w3.org/2000/svg">
<path d="M0 16.1362C0 7.29967 7.16344 0.13623 16 0.13623C24.8366 0.13623 32 7.29967 32 16.1362C32 24.9728 24.8366 32.1362 16 32.1362C7.16344 32.1362 0 24.9728 0 16.1362Z" fill="#FB0005" fill-opacity="0.2"/>
<g clip-path="url(#clip0_45_1508)">
<path d="M16.707 16.1393L21.8536 21.2859C22.0454 21.4845 22.04 21.8011 21.8413 21.9929C21.6476 22.1801 21.3404 22.1801 21.1466 21.9929L16 16.8463L10.8534 21.9929C10.6548 22.1848 10.3382 22.1793 10.1464 21.9807C9.95924 21.7869 9.95924 21.4797 10.1464 21.2859L15.293 16.1393L10.1464 10.9928C9.9512 10.7975 9.9512 10.481 10.1464 10.2857C10.3417 10.0906 10.6582 10.0906 10.8534 10.2857L16 15.4323L21.1466 10.2857C21.3418 10.0906 21.6583 10.0906 21.8536 10.2857C22.0488 10.481 22.0488 10.7975 21.8536 10.9928L16.707 16.1393Z" fill="#FB0023"/>
</g>
<defs>
<clipPath id="clip0_45_1508">
<rect width="12" height="12" fill="white" transform="matrix(1 0 0 -1 10 22.1362)"/>
</clipPath>
</defs>
</svg>
