<svg width="47" height="47" viewBox="0 0 47 47" fill="none" xmlns="http://www.w3.org/2000/svg">
<rect width="47" height="47" rx="23.5" fill="#198754"/>
<path d="M33.0063 16.8738L24.0063 12.3738C23.8507 12.2965 23.6793 12.2562 23.5056 12.2562C23.3319 12.2562 23.1606 12.2965 23.005 12.3738L13.9938 16.8738C13.645 17.0425 13.42 17.38 13.375 17.7625C13.3638 17.8863 12.295 29.8788 23.0388 34.6488C23.1834 34.7154 23.3408 34.7499 23.5 34.7499C23.6593 34.7499 23.8166 34.7154 23.9613 34.6488C34.705 29.8675 33.6363 17.875 33.625 17.7625C33.6071 17.5736 33.5407 17.3926 33.4323 17.2369C33.3239 17.0812 33.1771 16.9561 33.0063 16.8738ZM30.8125 23.5113H23.5113V32.3988C19.0113 30.2275 17.0538 26.5938 16.21 23.5113H23.5113V14.6463L31.42 18.6063C31.4425 19.5288 31.3863 21.3963 30.8125 23.5225V23.5113Z" fill="white"/>
</svg>
