<svg width="48" height="54" viewBox="0 0 48 54" fill="none" xmlns="http://www.w3.org/2000/svg">
<path d="M0 22.4445C0 13.9175 2.38419e-07 9.65408 1.00672 8.21976C2.01341 6.78544 6.02219 5.41323 14.0398 2.66877L15.5673 2.14592C19.7467 0.715306 21.8363 0 24 0C26.1637 0 28.2533 0.715306 32.4328 2.14592L33.9603 2.66877C41.9779 5.41323 45.9867 6.78544 46.9933 8.21976C48 9.65408 48 13.9175 48 22.4445C48 23.7323 48 25.1291 48 26.6437C48 41.6784 36.696 48.9747 29.6037 52.0728C27.68 52.9131 26.7181 53.3333 24 53.3333C21.2819 53.3333 20.32 52.9131 18.3962 52.0728C11.3039 48.9747 0 41.6784 0 26.6437C0 25.1291 0 23.7323 0 22.4445Z" fill="#DE1B0A"/>
<path fill-rule="evenodd" clip-rule="evenodd" d="M16.25 20.0879V18.4023C16.25 16.4484 17.0058 14.5706 18.3616 13.1804C19.029 12.4922 19.8276 11.9447 20.7101 11.5702C21.5927 11.1957 22.5413 11.0018 23.5 11C24.4587 11.0018 25.4073 11.1957 26.2899 11.5702C27.1724 11.9447 27.971 12.4922 28.6384 13.1804C29.9953 14.579 30.7529 16.4518 30.75 18.4004V20.0861C31.7472 20.1976 32.6683 20.6728 33.3371 21.4208C34.0059 22.1689 34.3754 23.1372 34.375 24.1406V34.1094C34.375 35.191 33.9453 36.2282 33.1805 36.993C32.4157 37.7578 31.3785 38.1875 30.2969 38.1875H16.7031C15.6215 38.1875 14.5843 37.7578 13.8195 36.993C13.0547 36.2282 12.625 35.191 12.625 34.1094V24.1406C12.625 23.1375 12.9948 22.1696 13.6635 21.422C14.3323 20.6743 15.2531 20.1993 16.25 20.0879ZM20.3082 15.0781C20.7224 14.6498 21.2182 14.3088 21.7665 14.0753C22.3147 13.8418 22.9041 13.7206 23.5 13.7188C24.6908 13.7187 25.8381 14.2027 26.6918 15.0781C27.5455 15.9536 28.0312 17.148 28.0312 18.4004V20.0625H18.9688V18.4004C18.9688 17.1498 19.4545 15.9536 20.3082 15.0781ZM23.5 27.7656C23.1395 27.7656 22.7937 27.9088 22.5388 28.1638C22.2838 28.4187 22.1406 28.7645 22.1406 29.125V30.9375C22.1406 31.298 22.2838 31.6438 22.5388 31.8987C22.7937 32.1537 23.1395 32.2969 23.5 32.2969C23.8605 32.2969 24.2063 32.1537 24.4612 31.8987C24.7162 31.6438 24.8594 31.298 24.8594 30.9375V29.125C24.8594 28.7645 24.7162 28.4187 24.4612 28.1638C24.2063 27.9088 23.8605 27.7656 23.5 27.7656Z" fill="white"/>
</svg>
