<svg width="40" height="41" viewBox="0 0 40 41" fill="none" xmlns="http://www.w3.org/2000/svg">
<rect y="0.318115" width="40" height="40" rx="8" fill="#E9E9E9"/>
<path d="M18.9928 31.5796C25.8423 31.5796 31.395 26.0269 31.395 19.1774C31.395 12.3278 25.8423 6.77515 18.9928 6.77515C12.1432 6.77515 6.59058 12.3278 6.59058 19.1774C6.59058 26.0269 12.1432 31.5796 18.9928 31.5796Z" fill="#F8F9F9"/>
<path d="M31.395 18.5868H26.0798C26.0517 16.6499 25.7657 14.7254 25.2293 12.8641C26.2806 12.2928 27.2467 11.5771 28.0996 10.738C28.2108 10.6268 28.2732 10.4759 28.2732 10.3187C28.2732 10.1614 28.2108 10.0106 28.0996 9.89935C27.9883 9.78814 27.8375 9.72567 27.6802 9.72567C27.523 9.72567 27.3721 9.78814 27.2609 9.89935C26.5346 10.609 25.7186 11.2205 24.8336 11.7183C22.0461 4.33017 15.9454 4.34198 13.1638 11.7183C12.2746 11.2213 11.4546 10.6098 10.7247 9.89935C10.611 9.80334 10.4653 9.75377 10.3167 9.76054C10.168 9.76732 10.0274 9.82993 9.92299 9.93588C9.81854 10.0418 9.75792 10.1833 9.75326 10.332C9.74859 10.4807 9.80023 10.6257 9.89784 10.738C10.7507 11.5771 11.7168 12.2928 12.7681 12.8641C12.2277 14.7249 11.9377 16.6494 11.9058 18.5868H6.59058C6.43395 18.5868 6.28373 18.649 6.17298 18.7598C6.06222 18.8705 6 19.0208 6 19.1774C6 19.334 6.06222 19.4842 6.17298 19.595C6.28373 19.7057 6.43395 19.768 6.59058 19.768H11.9058C11.9339 21.7048 12.2199 23.6293 12.7563 25.4907C11.705 26.062 10.7389 26.7776 9.88603 27.6168C9.77482 27.728 9.71234 27.8788 9.71234 28.0361C9.71234 28.1934 9.77482 28.3442 9.88603 28.4554C9.99723 28.5666 10.1481 28.6291 10.3053 28.6291C10.4626 28.6291 10.6134 28.5666 10.7247 28.4554C11.4509 27.7458 12.267 27.1343 13.1519 26.6364C15.9395 34.0246 22.0402 34.0128 24.8218 26.6364C27.066 27.9121 27.1074 28.6267 27.6684 28.6267C27.7852 28.6262 27.8993 28.5911 27.9961 28.5258C28.093 28.4605 28.1683 28.3679 28.2125 28.2598C28.2568 28.1518 28.268 28.033 28.2447 27.9185C28.2214 27.804 28.1648 27.699 28.0818 27.6168C27.229 26.7776 26.2629 26.062 25.2116 25.4907C25.754 23.6302 26.0459 21.7056 26.0798 19.768H31.395C31.5516 19.768 31.7018 19.7057 31.8126 19.595C31.9234 19.4842 31.9856 19.334 31.9856 19.1774C31.9856 19.0208 31.9234 18.8705 31.8126 18.7598C31.7018 18.649 31.5516 18.5868 31.395 18.5868ZM24.8986 18.5868H19.5834V14.4527C21.1431 14.3879 22.6781 14.0397 24.1131 13.4251C24.5905 15.1059 24.8544 16.8401 24.8986 18.5868ZM23.7174 12.2676C22.4121 12.8513 21.0111 13.1916 19.5834 13.2716V7.42482C21.2665 7.77916 22.7666 9.62768 23.7174 12.2676ZM18.4022 7.42482V13.2716C16.9764 13.2009 15.5754 12.8707 14.2681 12.2971C15.219 9.62768 16.7191 7.77916 18.4022 7.42482ZM13.8724 13.3956C15.3056 14.0203 16.8406 14.3786 18.4022 14.4527V18.5868H13.087C13.1287 16.8302 13.3926 15.0859 13.8724 13.3956ZM13.087 19.768H18.4022V23.9316C16.8424 23.9964 15.3075 24.3446 13.8724 24.9592C13.3926 23.2689 13.1287 21.5246 13.087 19.768ZM14.2681 26.0872C15.5754 25.5136 16.9764 25.1834 18.4022 25.1127V30.93C16.7191 30.5756 15.219 28.7271 14.2681 26.0872ZM19.5834 30.93V25.1127C21.0092 25.1834 22.4102 25.5136 23.7174 26.0872C22.7666 28.7271 21.2665 30.5756 19.5834 30.93ZM24.1131 24.9592C22.6781 24.3446 21.1431 23.9964 19.5834 23.9316V19.768H24.8986C24.8569 21.5246 24.593 23.2689 24.1131 24.9592Z" fill="#BEC6C6"/>
<path d="M18.9928 32.1702C16.4231 32.1702 13.911 31.4081 11.7744 29.9805C9.63773 28.5528 7.97242 26.5236 6.98902 24.1495C6.00563 21.7754 5.74833 19.163 6.24966 16.6426C6.75099 14.1222 7.98843 11.8071 9.80551 9.99008C11.6226 8.173 13.9377 6.93556 16.458 6.43423C18.9784 5.9329 21.5908 6.1902 23.9649 7.17359C26.339 8.15699 28.3682 9.82231 29.7959 11.959C31.2236 14.0956 31.9856 16.6076 31.9856 19.1774C31.9856 22.6233 30.6167 25.928 28.1801 28.3647C25.7435 30.8013 22.4387 32.1702 18.9928 32.1702ZM18.9928 7.36574C16.6567 7.36574 14.373 8.05848 12.4306 9.35636C10.4882 10.6542 8.97427 12.499 8.08027 14.6573C7.18628 16.8155 6.95237 19.1905 7.40813 21.4817C7.86388 23.7729 8.98883 25.8776 10.6407 27.5294C12.2926 29.1813 14.3972 30.3063 16.6885 30.762C18.9797 31.2178 21.3546 30.9839 23.5129 30.0899C25.6712 29.1959 27.5159 27.682 28.8138 25.7396C30.1117 23.7971 30.8044 21.5135 30.8044 19.1774C30.8044 16.0447 29.56 13.0404 27.3449 10.8253C25.1298 8.61017 22.1254 7.36574 18.9928 7.36574Z" fill="#414141"/>
<path d="M27.8515 33.3514C26.3038 32.8348 24.9577 31.8445 24.0039 30.5208C23.05 29.197 22.5366 27.6067 22.5363 25.9751V20.9492C23.4452 21.1309 24.385 21.0853 25.2721 20.8163C26.1591 20.5474 26.9661 20.0636 27.6212 19.4078L27.8515 19.1775L28.0818 19.4078C28.7363 20.0645 29.5432 20.5489 30.4305 20.8179C31.3177 21.0868 32.2578 21.132 33.1667 20.9492V25.9751C33.1664 27.6067 32.653 29.197 31.6991 30.5208C30.7452 31.8445 29.3992 32.8348 27.8515 33.3514Z" fill="#DE1B0A"/>
</svg>
