<svg width="40" height="41" viewBox="0 0 40 41" fill="none" xmlns="http://www.w3.org/2000/svg">
<rect y="0.227295" width="40" height="40" rx="8" fill="#E9E9E9"/>
<path d="M25.4348 13.3043L24.473 8.00864C24.4016 7.61531 24.1943 7.25959 23.8872 7.00367C23.5801 6.74776 23.1928 6.60793 22.793 6.60865C21.9956 6.60865 21.6426 7.21734 20.2183 7.21734H19.6948C19.0611 7.22066 18.4355 7.07469 17.8687 6.79125C17.6324 6.67378 17.372 6.61279 17.1081 6.6131C16.8441 6.61341 16.5839 6.675 16.3479 6.79303C16.1118 6.91106 15.9064 7.08229 15.7478 7.29324C15.5892 7.50419 15.4817 7.74909 15.4339 8.00864L14.4783 13.3043H25.4348Z" fill="#BEC6C6"/>
<path d="M24.2174 13.3044V16.7618C24.218 17.705 23.9213 18.6244 23.3695 19.3893C22.8176 20.1543 22.0387 20.7258 21.1435 21.0227C18.5139 21.8992 15.6957 19.6653 15.6957 16.7618V13.3044H24.2174Z" fill="#F8F9F9"/>
<path d="M30.3042 25.74V31.5652C30.3042 32.0495 30.1119 32.514 29.7694 32.8565C29.4269 33.1989 28.9625 33.3913 28.4782 33.3913H11.4347C10.9504 33.3913 10.4859 33.1989 10.1435 32.8565C9.80103 32.514 9.60864 32.0495 9.60864 31.5652V25.74C9.60911 25.159 9.81737 24.5972 10.1958 24.1563C10.5742 23.7154 11.0979 23.4243 11.6721 23.3357L17.5217 22.4348L18.8608 23.4392C19.1769 23.6762 19.5613 23.8044 19.9564 23.8044C20.3516 23.8044 20.736 23.6762 21.0521 23.4392L22.3912 22.4348L28.2408 23.3357C28.815 23.4243 29.3387 23.7154 29.7171 24.1563C30.0955 24.5972 30.3038 25.159 30.3042 25.74Z" fill="#F8F9F9"/>
<path d="M22.3913 20.3774V22.4348L21.0522 23.4392C20.7361 23.6762 20.3516 23.8044 19.9565 23.8044C19.5614 23.8044 19.1769 23.6762 18.8609 23.4392L17.5217 22.4348V20.3774C18.2172 20.9204 19.0742 21.2153 19.9565 21.2153C20.8388 21.2153 21.6958 20.9204 22.3913 20.3774Z" fill="#F8F9F9"/>
<path d="M15.6956 13.3044V16.3479H14.7826C14.379 16.3479 13.992 16.1876 13.7066 15.9022C13.4212 15.6168 13.2609 15.2298 13.2609 14.8262C13.2609 14.4226 13.4212 14.0355 13.7066 13.7501C13.992 13.4648 14.379 13.3044 14.7826 13.3044H15.6956Z" fill="#F8F9F9"/>
<path d="M26.6521 14.8262C26.6521 15.2298 26.4917 15.6168 26.2064 15.9022C25.921 16.1876 25.5339 16.3479 25.1303 16.3479H24.2173V13.3045H25.1303C25.3304 13.3037 25.5286 13.3425 25.7136 13.4187C25.8986 13.4948 26.0667 13.6069 26.2082 13.7484C26.3496 13.8898 26.4617 14.0579 26.5379 14.2429C26.6141 14.4279 26.6529 14.6261 26.6521 14.8262Z" fill="#F8F9F9"/>
<path d="M16.3042 13.9131V16.3479H19.3477L19.9564 15.7392L20.5651 16.3479H23.6085V13.9131H16.3042Z" fill="#BEC6C6"/>
<path d="M28.3321 22.733L23 21.9113V20.6574C23.5456 20.202 23.99 19.6375 24.3045 19.0001C24.619 18.3627 24.7966 17.6666 24.8261 16.9565H25.1487C25.508 16.9569 25.8616 16.8661 26.1764 16.6926C26.4911 16.5191 26.7567 16.2686 26.9482 15.9645C27.1398 15.6604 27.2511 15.3127 27.2717 14.954C27.2923 14.5952 27.2215 14.237 27.066 13.913H27.2608C27.4223 13.913 27.5771 13.8489 27.6912 13.7347C27.8054 13.6206 27.8695 13.4658 27.8695 13.3043C27.8695 13.1429 27.8054 12.9881 27.6912 12.8739C27.5771 12.7598 27.4223 12.6956 27.2608 12.6956H25.94L25.0695 7.89913C24.9726 7.36607 24.6916 6.88396 24.2755 6.53689C23.8595 6.18982 23.3348 5.99981 22.793 6C21.7826 6 21.5452 6.60869 20.2182 6.60869C19.5021 6.67817 18.7805 6.55195 18.1304 6.24348C17.81 6.08874 17.4583 6.00981 17.1025 6.01278C16.7467 6.01575 16.3964 6.10055 16.0786 6.26061C15.7608 6.42067 15.4841 6.65171 15.27 6.93584C15.0558 7.21996 14.9099 7.54956 14.8435 7.89913L13.973 12.6956H12.6522C12.4907 12.6956 12.3359 12.7598 12.2218 12.8739C12.1076 12.9881 12.0435 13.1429 12.0435 13.3043C12.0435 13.4658 12.1076 13.6206 12.2218 13.7347C12.3359 13.8489 12.4907 13.913 12.6522 13.913H12.8652C12.7097 14.237 12.639 14.5952 12.6596 14.954C12.6802 15.3127 12.7915 15.6604 12.983 15.9645C13.1746 16.2686 13.4402 16.5191 13.7549 16.6926C14.0696 16.8661 14.4232 16.9569 14.7826 16.9565H15.0869C15.1163 17.6666 15.294 18.3627 15.6085 19.0001C15.923 19.6375 16.3673 20.202 16.913 20.6574V21.9113L11.5809 22.733C10.8625 22.8435 10.2074 23.2074 9.73402 23.7589C9.26065 24.3104 9.00028 25.0131 9 25.74V31.5652C9 32.2109 9.25652 32.8302 9.71313 33.2868C10.1697 33.7434 10.789 33.9999 11.4348 33.9999H14.4782C14.6397 33.9999 14.7945 33.9358 14.9087 33.8217C15.0228 33.7075 15.0869 33.5527 15.0869 33.3912C15.0869 33.2298 15.0228 33.075 14.9087 32.9608C14.7945 32.8467 14.6397 32.7825 14.4782 32.7825H11.4348C11.1119 32.7825 10.8023 32.6543 10.574 32.426C10.3456 32.1977 10.2174 31.888 10.2174 31.5652V25.74C10.2122 25.3005 10.3657 24.8739 10.6497 24.5384C10.9337 24.203 11.3291 23.9812 11.7635 23.9139L17.3635 23.0495C18.4469 23.8652 18.9461 24.3826 19.9565 24.3826C20.9669 24.3826 21.4904 23.8469 22.5495 23.0495L28.1495 23.9139C28.5838 23.9812 28.9793 24.203 29.2633 24.5384C29.5473 24.8739 29.7008 25.3005 29.6956 25.74V31.5652C29.6956 31.888 29.5673 32.1977 29.339 32.426C29.1107 32.6543 28.8011 32.7825 28.4782 32.7825H25.4347C25.2733 32.7825 25.1185 32.8467 25.0043 32.9608C24.8902 33.075 24.8261 33.2298 24.8261 33.3912C24.8261 33.5527 24.8902 33.7075 25.0043 33.8217C25.1185 33.9358 25.2733 33.9999 25.4347 33.9999H28.4782C29.124 33.9999 29.7433 33.7434 30.1999 33.2868C30.6565 32.8302 30.913 32.2109 30.913 31.5652V25.74C30.9127 25.0131 30.6523 24.3104 30.179 23.7589C29.7056 23.2074 29.0505 22.8435 28.3321 22.733ZM25.1304 15.7391H24.8261V13.913H25.1304C25.3726 13.913 25.6048 14.0092 25.776 14.1804C25.9472 14.3517 26.0434 14.5839 26.0434 14.8261C26.0434 15.0682 25.9472 15.3005 25.776 15.4717C25.6048 15.6429 25.3726 15.7391 25.1304 15.7391ZM16.0426 8.11826C16.073 7.95129 16.1418 7.79368 16.2436 7.65785C16.3454 7.52203 16.4773 7.41169 16.629 7.33556C16.7806 7.25942 16.9479 7.21957 17.1177 7.21913C17.2874 7.21869 17.4549 7.25769 17.6069 7.33304C18.4195 7.72221 19.3197 7.89217 20.2182 7.82608C20.9429 7.82491 21.6574 7.65617 22.3061 7.33304C22.4581 7.25769 22.6256 7.21869 22.7953 7.21913C22.9651 7.21957 23.1324 7.25942 23.284 7.33556C23.4357 7.41169 23.5676 7.52203 23.6694 7.65785C23.7711 7.79368 23.84 7.95129 23.8704 8.11826L24.7043 12.6956H15.2087L16.0426 8.11826ZM13.8696 14.8261C13.8696 14.5839 13.9657 14.3517 14.137 14.1804C14.3082 14.0092 14.5404 13.913 14.7826 13.913H15.0869V15.7391H14.7826C14.5404 15.7391 14.3082 15.6429 14.137 15.4717C13.9657 15.3005 13.8696 15.0682 13.8696 14.8261ZM16.3043 16.7617V13.913H23.6087V16.7617C23.608 17.5771 23.3507 18.3716 22.8733 19.0325C22.3959 19.6935 21.7225 20.1874 20.9487 20.4443C18.8061 21.1626 16.3043 19.3487 16.3043 16.7617ZM20.6869 22.9521C20.4762 23.1102 20.2199 23.1956 19.9565 23.1956C19.6931 23.1956 19.4368 23.1102 19.2261 22.9521L18.1304 22.1304V21.4121C18.2747 21.4838 18.423 21.5468 18.5748 21.6008C19.4717 21.8993 20.4413 21.8993 21.3382 21.6008C21.49 21.5468 21.6383 21.4838 21.7826 21.4121V22.1304L20.6869 22.9521Z" fill="#414141"/>
<path d="M25.8244 25.4782H14.0888C13.8217 25.4746 13.5571 25.5297 13.3135 25.6395C13.07 25.7493 12.8536 25.9112 12.6795 26.1138C12.5053 26.3163 12.3778 26.5546 12.3058 26.8119C12.2337 27.0691 12.2191 27.339 12.2627 27.6025L13.261 33.4886C13.2843 33.6326 13.3586 33.7635 13.4703 33.8574C13.582 33.9512 13.7238 34.0018 13.8697 33.9999H26.0435C26.1894 34.0018 26.3312 33.9512 26.4429 33.8574C26.5546 33.7635 26.6289 33.6326 26.6522 33.4886L27.6322 27.6025C27.6756 27.3405 27.6613 27.0722 27.5904 26.8163C27.5194 26.5604 27.3935 26.323 27.2214 26.1208C27.0492 25.9185 26.8351 25.7563 26.5938 25.6453C26.3526 25.5343 26.09 25.4773 25.8244 25.4782Z" fill="#DE1B0A"/>
<path d="M22.3913 29.739C22.3364 29.1117 22.0623 28.5237 21.617 28.0785C21.1717 27.6332 20.5838 27.3591 19.9565 27.3042C19.3292 27.3591 18.7413 27.6332 18.296 28.0785C17.8507 28.5237 17.5766 29.1117 17.5217 29.739C17.5275 29.9742 17.585 30.2052 17.6903 30.4156C17.7955 30.626 17.9457 30.8106 18.1304 30.9564V31.5651C18.1304 31.7265 18.1946 31.8813 18.3087 31.9955C18.4229 32.1096 18.5777 32.1738 18.7391 32.1738H21.1739C21.3353 32.1738 21.4902 32.1096 21.6043 31.9955C21.7185 31.8813 21.7826 31.7265 21.7826 31.5651V30.9564C21.9673 30.8106 22.1176 30.626 22.2228 30.4156C22.328 30.2052 22.3855 29.9742 22.3913 29.739Z" fill="#F8F9F9"/>
<path d="M19.3478 30.3478C19.684 30.3478 19.9565 30.0752 19.9565 29.7391C19.9565 29.4029 19.684 29.1304 19.3478 29.1304C19.0117 29.1304 18.7391 29.4029 18.7391 29.7391C18.7391 30.0752 19.0117 30.3478 19.3478 30.3478Z" fill="#DE1B0A"/>
<path d="M20.5652 30.3478C20.9014 30.3478 21.1739 30.0752 21.1739 29.7391C21.1739 29.4029 20.9014 29.1304 20.5652 29.1304C20.2291 29.1304 19.9565 29.4029 19.9565 29.7391C19.9565 30.0752 20.2291 30.3478 20.5652 30.3478Z" fill="#DE1B0A"/>
<path d="M20.9364 19.1355C20.5911 19.128 20.2536 19.0315 19.9564 18.8555L19.7799 18.9407C18.5017 19.5494 16.9799 18.4599 17.6982 17.7233C17.7548 17.6663 17.8221 17.621 17.8963 17.5901C17.9704 17.5592 18.05 17.5433 18.1304 17.5433C18.2107 17.5433 18.2903 17.5592 18.3645 17.5901C18.4386 17.621 18.5059 17.6663 18.5625 17.7233C18.6483 17.812 18.7604 17.8705 18.8822 17.8903C19.0039 17.91 19.1288 17.8899 19.2382 17.8329C19.993 17.4555 19.8773 17.4372 20.6747 17.8329C20.7841 17.8899 20.909 17.91 21.0307 17.8903C21.1525 17.8705 21.2646 17.812 21.3504 17.7233C21.465 17.6087 21.6204 17.5443 21.7825 17.5443C21.9446 17.5443 22.1001 17.6087 22.2147 17.7233C22.3293 17.838 22.3937 17.9934 22.3937 18.1555C22.3937 18.3176 22.3293 18.4731 22.2147 18.5877C21.8776 18.9317 21.4181 19.1286 20.9364 19.1355Z" fill="#BEC6C6"/>
</svg>
