<svg width="38" height="38" viewBox="0 0 38 38" fill="none" xmlns="http://www.w3.org/2000/svg">
<path d="M25.3334 12.6667V11.0833C25.3334 7.58553 22.4978 4.75 19 4.75C15.5022 4.75 12.6667 7.58553 12.6667 11.0833V12.6667" stroke="white" stroke-width="5.33333" stroke-linecap="round"/>
<path fill-rule="evenodd" clip-rule="evenodd" d="M6.14124 12.4746C4.75 13.8658 4.75 16.105 4.75 20.5833V22.1666C4.75 28.1377 4.75 31.1234 6.60499 32.9783C8.45999 34.8333 11.4455 34.8333 17.4167 34.8333H20.5833C26.5544 34.8333 29.5401 34.8333 31.395 32.9783C33.25 31.1234 33.25 28.1377 33.25 22.1666V20.5833C33.25 16.105 33.25 13.8658 31.8587 12.4746C30.4675 11.0833 28.2283 11.0833 23.75 11.0833H14.25C9.77165 11.0833 7.53249 11.0833 6.14124 12.4746ZM19 23.75C19.8745 23.75 20.5833 23.0411 20.5833 22.1666C20.5833 21.2922 19.8745 20.5833 19 20.5833C18.1255 20.5833 17.4167 21.2922 17.4167 22.1666C17.4167 23.0411 18.1255 23.75 19 23.75ZM23.75 22.1666C23.75 24.2348 22.4282 25.9944 20.5833 26.6464V30.0833H17.4167V26.6464C15.5718 25.9944 14.25 24.2348 14.25 22.1666C14.25 19.5432 16.3766 17.4166 19 17.4166C21.6234 17.4166 23.75 19.5432 23.75 22.1666Z" fill="white"/>
</svg>
