<svg width="40" height="41" viewBox="0 0 40 41" fill="none" xmlns="http://www.w3.org/2000/svg">
<rect y="0.40918" width="40" height="40" rx="8" fill="#E9E9E9"/>
<path d="M32.3281 22.8966V17.4904L29.5439 16.7931C29.1613 15.7766 28.6133 14.8304 27.9221 13.9926L28.706 11.2463L24.0242 8.54321L22.0564 10.6084C20.9839 10.4139 19.8851 10.4139 18.8126 10.6084L16.8286 8.54321L12.1468 11.2463L12.9307 13.9926C12.2395 14.8304 11.6915 15.7766 11.3089 16.7931L8.54089 17.4904V22.8966L11.3251 23.594C11.7077 24.6105 12.2557 25.5567 12.9469 26.3944L12.1468 29.1408L16.8286 31.8439L18.8126 29.7787C19.8851 29.9732 20.9839 29.9732 22.0564 29.7787L24.0512 31.8439L28.733 29.1408L27.9491 26.3944C28.6403 25.5567 29.1883 24.6105 29.571 23.594L32.3281 22.8966Z" fill="#F8F9F9"/>
<path d="M29.5439 16.7931C29.1613 15.7766 28.6133 14.8304 27.9221 13.9926L28.706 11.2463L24.0242 8.54321L22.0564 10.6084C20.9841 10.411 19.8849 10.411 18.8126 10.6084L16.8286 8.54321L12.1468 11.2463L12.9307 13.9926C12.2395 14.8304 11.6915 15.7766 11.3089 16.7931L8.54089 17.4904V22.8966L11.3251 23.594C11.7077 24.6105 12.2557 25.5567 12.9469 26.3944L12.1468 29.1408L16.8286 31.8439L18.8126 29.7787C19.8849 29.9761 20.9841 29.9761 22.0564 29.7787L24.0512 31.8439L28.733 29.1408L27.9491 26.3944C28.6403 25.5567 29.1883 24.6105 29.571 23.594L32.3281 22.8966V17.4904L29.5439 16.7931ZM20.4345 29.3841C18.6168 29.3841 16.8399 28.845 15.3285 27.8352C13.8172 26.8253 12.6392 25.3899 11.9436 23.7106C11.248 22.0313 11.066 20.1833 11.4206 18.4006C11.7752 16.6178 12.6505 14.9802 13.9358 13.6949C15.2211 12.4096 16.8587 11.5342 18.6415 11.1796C20.4243 10.825 22.2722 11.007 23.9516 11.7026C25.6309 12.3982 27.0663 13.5762 28.0761 15.0876C29.086 16.5989 29.625 18.3758 29.625 20.1935C29.625 22.631 28.6567 24.9687 26.9332 26.6922C25.2096 28.4158 22.872 29.3841 20.4345 29.3841Z" fill="#BEC6C6"/>
<path d="M24.2187 16.9497V20.0421C24.2197 21.1762 23.8507 22.2797 23.1677 23.1851C22.4848 24.0905 21.5251 24.7484 20.4344 25.059C19.3441 24.7476 18.3849 24.0895 17.7021 23.1843C17.0192 22.279 16.6499 21.176 16.65 20.0421V16.9497C16.9971 16.9505 17.3365 16.8481 17.6252 16.6556C17.914 16.4631 18.1391 16.1891 18.2719 15.8685L20.4344 15.3279L22.5968 15.8685L22.6563 15.982C22.8005 16.273 23.0233 16.5179 23.2994 16.6889C23.5755 16.8599 23.8939 16.9502 24.2187 16.9497Z" fill="#DE1B0A"/>
<path d="M16.8285 32.3844C16.6231 32.3844 16.9799 32.5574 11.8765 29.6111C11.7723 29.5507 11.6913 29.4573 11.6462 29.3456C11.6012 29.234 11.5947 29.1105 11.6278 28.9948L12.3252 26.5133C11.7419 25.7616 11.2669 24.9318 10.9142 24.0481L8.4111 23.4372C8.29115 23.4076 8.18496 23.3378 8.1102 23.2394C8.03544 23.1411 7.99663 23.0201 8.00023 22.8966V17.4904C7.99663 17.3669 8.03544 17.2459 8.1102 17.1475C8.18496 17.0492 8.29115 16.9794 8.4111 16.9498L10.925 16.3227C11.2757 15.4453 11.747 14.621 12.3252 13.8737L11.6278 11.3922C11.5947 11.2765 11.6012 11.153 11.6462 11.0413C11.6913 10.9297 11.7723 10.8363 11.8765 10.7759L16.5582 8.07283C16.6626 8.01233 16.7843 7.98852 16.9038 8.00517C17.0234 8.02183 17.1339 8.078 17.2178 8.16473L19.018 10.0299C19.9567 9.8839 20.9122 9.8839 21.8509 10.0299L23.6782 8.16473C23.7621 8.078 23.8726 8.02183 23.9921 8.00517C24.1116 7.98852 24.2333 8.01233 24.3377 8.07283L29.0195 10.7759C29.1236 10.8363 29.2047 10.9297 29.2497 11.0413C29.2948 11.153 29.3012 11.2765 29.2682 11.3922L28.5437 13.8737C29.127 14.6254 29.602 15.4552 29.9547 16.3389L32.4578 16.9498C32.5778 16.9794 32.684 17.0492 32.7587 17.1475C32.8335 17.2459 32.8723 17.3669 32.8687 17.4904V22.8966C32.8723 23.0201 32.8335 23.1411 32.7587 23.2394C32.684 23.3378 32.5778 23.4076 32.4578 23.4372L29.9439 24.0643C29.5932 24.9417 29.1219 25.766 28.5437 26.5133L29.2519 28.9948C29.285 29.1105 29.2785 29.234 29.2335 29.3456C29.1884 29.4573 29.1074 29.5507 29.0033 29.6111L24.3215 32.3142C24.2188 32.3707 24.1005 32.3922 23.9845 32.3757C23.8684 32.3591 23.7609 32.3052 23.6782 32.2223L21.8509 30.3571C20.9122 30.5031 19.9567 30.5031 19.018 30.3571L17.2178 32.2223C17.1671 32.274 17.1065 32.315 17.0396 32.3429C16.9728 32.3707 16.901 32.3849 16.8285 32.3844ZM12.7847 28.8866L16.7312 31.168L18.4342 29.384C18.8667 28.9353 19.4397 29.6435 21.9536 29.2272C22.0405 29.2121 22.1298 29.2185 22.2136 29.2458C22.2975 29.2732 22.3734 29.3206 22.4347 29.384L24.1377 31.1464L28.0842 28.865L27.4138 26.5187C27.3898 26.4345 27.3867 26.3458 27.4046 26.2601C27.4224 26.1744 27.4609 26.0943 27.5166 26.0268C28.1674 25.2368 28.6809 24.3432 29.0357 23.3831C29.0667 23.3007 29.1174 23.227 29.1833 23.1686C29.2493 23.1102 29.3285 23.0688 29.4141 23.048L31.7874 22.4749V17.9121L29.4141 17.3174C29.3285 17.2966 29.2493 17.2552 29.1833 17.1968C29.1174 17.1384 29.0667 17.0647 29.0357 16.9822C28.6809 16.0222 28.1674 15.1286 27.5166 14.3386C27.4609 14.271 27.4224 14.191 27.4046 14.1053C27.3867 14.0196 27.3898 13.9308 27.4138 13.8466L28.0842 11.5003L24.1377 9.21894L22.4347 11.003C21.9968 11.4517 21.4346 10.7381 18.9153 11.1598C18.8284 11.1749 18.7391 11.1685 18.6553 11.1411C18.5714 11.1138 18.4955 11.0664 18.4342 11.003L16.7312 9.21894L12.7847 11.5003L13.4551 13.8466C13.4791 13.9308 13.4822 14.0196 13.4644 14.1053C13.4465 14.191 13.408 14.271 13.3524 14.3386C12.7023 15.1291 12.1889 16.0226 11.8332 16.9822C11.8022 17.0647 11.7515 17.1384 11.6856 17.1968C11.6196 17.2552 11.5404 17.2966 11.4548 17.3174L9.08147 17.9121V22.4749L11.4548 23.0696C11.5404 23.0904 11.6196 23.1318 11.6856 23.1902C11.7515 23.2486 11.8022 23.3223 11.8332 23.4048C12.1889 24.3644 12.7023 25.2579 13.3524 26.0484C13.408 26.1159 13.4465 26.196 13.4644 26.2817C13.4822 26.3674 13.4791 26.4562 13.4551 26.5404L12.7847 28.8866Z" fill="#414141"/>
<path d="M20.4343 27.7621C18.9373 27.7621 17.474 27.3182 16.2293 26.4865C14.9847 25.6549 14.0146 24.4728 13.4417 23.0898C12.8689 21.7068 12.719 20.185 13.011 18.7168C13.3031 17.2487 14.0239 15.9001 15.0824 14.8416C16.1409 13.7831 17.4895 13.0622 18.9577 12.7702C20.4259 12.4782 21.9477 12.628 23.3307 13.2009C24.7137 13.7737 25.8957 14.7438 26.7274 15.9885C27.559 17.2332 28.0029 18.6965 28.0029 20.1934C28.0029 22.2008 27.2055 24.1259 25.7861 25.5453C24.3667 26.9647 22.4416 27.7621 20.4343 27.7621ZM20.4343 13.706C19.1512 13.706 17.8969 14.0865 16.83 14.7993C15.7632 15.5122 14.9317 16.5254 14.4407 17.7108C13.9496 18.8962 13.8212 20.2006 14.0715 21.4591C14.3218 22.7175 14.9397 23.8734 15.847 24.7807C16.7542 25.688 17.9102 26.3059 19.1686 26.5562C20.4271 26.8065 21.7315 26.678 22.9169 26.187C24.1023 25.696 25.1155 24.8645 25.8284 23.7976C26.5412 22.7308 26.9217 21.4765 26.9217 20.1934C26.9217 18.4728 26.2382 16.8227 25.0216 15.6061C23.8049 14.3895 22.1548 13.706 20.4343 13.706Z" fill="#414141"/>
</svg>
