<svg width="40" height="41" viewBox="0 0 40 41" fill="none" xmlns="http://www.w3.org/2000/svg">
<rect y="0.772705" width="40" height="40" rx="8" fill="#E9E9E9"/>
<path d="M30.7813 16.115C30.247 17.7261 30.2099 19.4608 30.6747 21.0933C31.0885 22.5292 31.5462 23.8772 30.8941 25.8209C30.2272 27.8191 29.0505 29.6087 27.4803 31.0129C25.91 32.4171 24.0006 33.3873 21.9406 33.8277L19.9279 34.2603L17.9153 33.8277C15.8546 33.3868 13.9446 32.4156 12.3743 31.0103C10.804 29.6049 9.6277 27.814 8.96171 25.8147C8.33471 23.8521 8.79242 22.4351 9.18116 21.0871C9.64469 19.4565 9.60755 17.7242 9.07457 16.115C8.51654 14.4597 8.64194 13.3311 8.64194 10.4344H9.26894C10.2667 10.4344 11.2236 10.038 11.9291 9.3325C12.6346 8.62698 13.0309 7.67011 13.0309 6.67236H26.8249C26.8249 7.67011 27.2213 8.62698 27.9268 9.3325C28.6323 10.038 29.5892 10.4344 30.5869 10.4344H31.2139C31.2139 13.4565 31.3268 14.4973 30.7813 16.115Z" fill="#BEC6C6"/>
<path d="M18.3102 31.9907C16.5707 31.6149 14.9589 30.793 13.6331 29.6058C12.3074 28.4185 11.3133 26.9068 10.7486 25.2191C10.2533 23.7519 10.6859 22.6547 10.9869 21.6076C11.5575 19.6138 11.5138 17.4943 10.8615 15.5257C10.543 14.4401 10.4282 13.3049 10.5229 12.1775C11.452 11.9661 12.3124 11.5229 13.0239 10.8892C13.7355 10.2555 14.275 9.45196 14.5921 8.55347H25.2511C25.5694 9.45348 26.1108 10.258 26.8247 10.8919C27.5385 11.5257 28.4015 11.968 29.3329 12.1775C29.4261 13.3004 29.3135 14.4308 29.0006 15.5132C28.3444 17.4827 28.2964 19.6041 28.8626 21.6013C29.2138 22.8177 29.59 23.7958 29.1134 25.2128C28.548 26.9018 27.5531 28.4148 26.2263 29.6031C24.8995 30.7914 23.2864 31.6142 21.5456 31.9907L19.9279 32.3356L18.3102 31.9907Z" fill="#F8F9F9"/>
<path d="M22.436 19.8393C22.2697 19.8393 22.1102 19.7733 21.9926 19.6557C21.875 19.5381 21.809 19.3786 21.809 19.2123V16.7043C21.809 16.2055 21.6108 15.727 21.258 15.3743C20.9053 15.0215 20.4268 14.8233 19.928 14.8233C19.4291 14.8233 18.9507 15.0215 18.5979 15.3743C18.2451 15.727 18.047 16.2055 18.047 16.7043V19.2123C18.047 19.3786 17.9809 19.5381 17.8633 19.6557C17.7457 19.7733 17.5863 19.8393 17.42 19.8393C17.2537 19.8393 17.0942 19.7733 16.9766 19.6557C16.859 19.5381 16.793 19.3786 16.793 19.2123V16.7043C16.793 15.8729 17.1233 15.0755 17.7112 14.4876C18.2991 13.8996 19.0965 13.5693 19.928 13.5693C20.7594 13.5693 21.5568 13.8996 22.1447 14.4876C22.7327 15.0755 23.063 15.8729 23.063 16.7043V19.2123C23.063 19.3786 22.9969 19.5381 22.8793 19.6557C22.7617 19.7733 22.6023 19.8393 22.436 19.8393Z" fill="#BEC6C6"/>
<path d="M23.0628 18.5854H16.7928C16.1003 18.5854 15.5388 19.1469 15.5388 19.8394V24.8554C15.5388 25.548 16.1003 26.1094 16.7928 26.1094H23.0628C23.7554 26.1094 24.3168 25.548 24.3168 24.8554V19.8394C24.3168 19.1469 23.7554 18.5854 23.0628 18.5854Z" fill="#DE1B0A"/>
<path d="M19.928 20.4663C19.6543 20.4691 19.3891 20.5613 19.1727 20.729C18.9564 20.8966 18.8008 21.1304 18.7298 21.3947C18.6587 21.659 18.6761 21.9393 18.7792 22.1928C18.8823 22.4463 19.0656 22.6591 19.301 22.7987V23.6013C19.301 23.7676 19.367 23.9271 19.4846 24.0447C19.6022 24.1622 19.7617 24.2283 19.928 24.2283C20.0943 24.2283 20.2537 24.1622 20.3713 24.0447C20.4889 23.9271 20.555 23.7676 20.555 23.6013V22.7987C20.7903 22.6591 20.9736 22.4463 21.0767 22.1928C21.1799 21.9393 21.1972 21.659 21.1262 21.3947C21.0551 21.1304 20.8996 20.8966 20.6832 20.729C20.4669 20.5613 20.2016 20.4691 19.928 20.4663Z" fill="#F8F9F9"/>
<path d="M19.9279 34.8874C19.8339 34.8874 19.9279 34.8874 17.7836 34.4422C11.8271 33.1631 8.01492 27.7521 8.01492 23.8459C8.04544 22.844 8.23595 21.8534 8.57922 20.9116C9.01031 19.4024 8.97535 17.7983 8.4789 16.3094C7.87071 14.5036 8.01492 13.1995 8.01492 10.4344C8.01492 10.2681 8.08098 10.1086 8.19857 9.99105C8.31615 9.87346 8.47563 9.80741 8.64192 9.80741H9.26892C9.68061 9.80741 10.0883 9.72632 10.4686 9.56877C10.849 9.41122 11.1946 9.1803 11.4857 8.88919C11.7768 8.59808 12.0077 8.25248 12.1653 7.87212C12.3228 7.49177 12.4039 7.0841 12.4039 6.67241C12.4039 6.50612 12.47 6.34664 12.5876 6.22905C12.7051 6.11147 12.8646 6.04541 13.0309 6.04541H26.8249C26.9912 6.04541 27.1507 6.11147 27.2683 6.22905C27.3858 6.34664 27.4519 6.50612 27.4519 6.67241C27.4519 7.50386 27.7822 8.30126 28.3701 8.88919C28.958 9.47711 29.7554 9.80741 30.5869 9.80741H31.2139C31.3802 9.80741 31.5397 9.87346 31.6573 9.99105C31.7748 10.1086 31.8409 10.2681 31.8409 10.4344C31.8409 13.212 31.9726 14.5475 31.3769 16.3157C29.9599 20.6043 32.8127 22.0841 31.4898 26.0153C30.7852 28.1137 29.5482 29.9933 27.8997 31.4703C26.2512 32.9474 24.2476 33.9714 22.0848 34.4422C19.9279 34.8874 20.022 34.8874 19.9279 34.8874ZM9.26892 11.0614C9.26892 13.3813 9.1686 14.4347 9.6702 15.9144C10.2459 17.6429 10.2853 19.5051 9.78306 21.2564C9.39432 22.6107 8.95542 23.8334 9.55734 25.6454C10.1971 27.5334 11.3155 29.2231 12.8035 30.5496C14.2915 31.876 16.0982 32.7938 18.0469 33.2133L19.9279 33.6334L21.8089 33.2258C23.7626 32.8024 25.5726 31.878 27.061 30.5435C28.5495 29.2089 29.6651 27.5102 30.2985 25.6141C30.9255 23.8146 30.4301 22.5104 30.0728 21.2627C29.5702 19.5115 29.6095 17.6491 30.1856 15.9206C30.448 15.1255 30.5834 14.2939 30.5869 13.4565V11.0614C29.5313 11.0617 28.511 10.6815 27.7129 9.99055C26.9149 9.2996 26.3926 8.34418 26.2418 7.29941H13.614C13.4632 8.34418 12.9409 9.2996 12.1429 9.99055C11.3448 10.6815 10.3245 11.0617 9.26892 11.0614Z" fill="#414141"/>
</svg>
