<svg width="40" height="41" viewBox="0 0 40 41" fill="none" xmlns="http://www.w3.org/2000/svg">
<rect y="0.681885" width="40" height="40" rx="8" fill="#E9E9E9"/>
<path d="M13.779 28.3369H10.6268V30.4384H13.779V28.3369Z" fill="#BEC6C6"/>
<path d="M26.3879 30.4385H29.54V28.337H26.3879V30.4385Z" fill="#BEC6C6"/>
<path d="M31.6414 27.2863V12.5761C31.6414 11.9958 31.1709 11.5254 30.5906 11.5254L9.57606 11.5254C8.99576 11.5254 8.52533 11.9958 8.52533 12.5761V27.2863C8.52533 27.8666 8.99576 28.337 9.57606 28.337H30.5906C31.1709 28.337 31.6414 27.8666 31.6414 27.2863Z" fill="#BEC6C6"/>
<path d="M30.0653 26.7608V13.1013L10.1015 13.1013V26.7608H30.0653Z" fill="white"/>
<path d="M20.7716 22.5053C21.3424 21.7686 21.6522 20.863 21.6522 19.931C21.6522 18.999 21.3424 18.0935 20.7716 17.3567L21.1709 16.9575C21.2259 16.9104 21.2705 16.8524 21.3021 16.7872C21.3336 16.7221 21.3513 16.6511 21.3541 16.5787C21.3569 16.5064 21.3447 16.4342 21.3183 16.3668C21.2919 16.2994 21.2518 16.2381 21.2006 16.1869C21.1494 16.1357 21.0882 16.0957 21.0208 16.0693C20.9534 16.0429 20.8812 16.0307 20.8089 16.0335C20.7365 16.0363 20.6655 16.054 20.6003 16.0855C20.5352 16.117 20.4772 16.1617 20.4301 16.2167L20.0308 16.616C19.2941 16.0451 18.3885 15.7354 17.4565 15.7354C16.5245 15.7354 15.619 16.0451 14.8823 16.616L14.483 16.2167C14.3825 16.1306 14.2532 16.0857 14.121 16.0908C13.9888 16.0959 13.8633 16.1507 13.7698 16.2443C13.6762 16.3378 13.6214 16.4632 13.6163 16.5955C13.6112 16.7277 13.6562 16.857 13.7422 16.9575L14.1415 17.3567C13.5706 18.0935 13.2609 18.999 13.2609 19.931C13.2609 20.863 13.5706 21.7686 14.1415 22.5053L13.7422 22.9046C13.6872 22.9517 13.6426 23.0096 13.611 23.0748C13.5795 23.14 13.5618 23.211 13.559 23.2834C13.5562 23.3557 13.5684 23.4279 13.5948 23.4953C13.6212 23.5627 13.6613 23.6239 13.7125 23.6751C13.7637 23.7263 13.8249 23.7664 13.8923 23.7928C13.9597 23.8192 14.0319 23.8314 14.1042 23.8286C14.1766 23.8258 14.2476 23.8081 14.3128 23.7766C14.3779 23.745 14.4359 23.7004 14.483 23.6454L14.8823 23.2461C15.619 23.8169 16.5245 24.1267 17.4565 24.1267C18.3885 24.1267 19.2941 23.8169 20.0308 23.2461L20.4301 23.6454C20.4772 23.7004 20.5352 23.745 20.6003 23.7766C20.6655 23.8081 20.7365 23.8258 20.8089 23.8286C20.8812 23.8314 20.9534 23.8192 21.0208 23.7928C21.0882 23.7664 21.1494 23.7263 21.2006 23.6751C21.2518 23.6239 21.2919 23.5627 21.3183 23.4953C21.3447 23.4279 21.3569 23.3557 21.3541 23.2834C21.3513 23.211 21.3336 23.14 21.3021 23.0748C21.2705 23.0096 21.2259 22.9517 21.1709 22.9046L20.7716 22.5053Z" fill="#DE1B0A"/>
<path d="M11.1522 15.2029H10.1014V18.3551H11.1522V15.2029Z" fill="#BEC6C6"/>
<path d="M11.1522 21.5073H10.1014V24.6595H11.1522V21.5073Z" fill="#BEC6C6"/>
<path d="M27.4385 17.3042H25.7153C25.5997 17.1039 25.4212 16.9473 25.2075 16.8588C24.9938 16.7703 24.7568 16.7547 24.5334 16.8146C24.31 16.8745 24.1126 17.0064 23.9718 17.1899C23.831 17.3734 23.7546 17.5982 23.7546 17.8295C23.7546 18.0608 23.831 18.2857 23.9718 18.4692C24.1126 18.6527 24.31 18.7846 24.5334 18.8445C24.7568 18.9043 24.9938 18.8888 25.2075 18.8003C25.4212 18.7118 25.5997 18.5552 25.7153 18.3549H27.4385C27.5779 18.3549 27.7115 18.2996 27.81 18.201C27.9085 18.1025 27.9639 17.9689 27.9639 17.8295C27.9639 17.6902 27.9085 17.5566 27.81 17.458C27.7115 17.3595 27.5779 17.3042 27.4385 17.3042Z" fill="#BEC6C6"/>
<path d="M30.5907 11H9.57609C9.15809 11 8.7572 11.1661 8.46163 11.4616C8.16605 11.7572 8 12.1581 8 12.5761V27.2863C8 27.7043 8.16605 28.1052 8.46163 28.4008C8.7572 28.6963 9.15809 28.8624 9.57609 28.8624H10.1015V30.4385C10.1015 30.5778 10.1568 30.7114 10.2553 30.81C10.3539 30.9085 10.4875 30.9638 10.6268 30.9638H13.779C13.9183 30.9638 14.052 30.9085 14.1505 30.81C14.249 30.7114 14.3044 30.5778 14.3044 30.4385V28.8624H25.8624V30.4385C25.8624 30.5778 25.9177 30.7114 26.0163 30.81C26.1148 30.9085 26.2484 30.9638 26.3877 30.9638H29.5399C29.6793 30.9638 29.8129 30.9085 29.9114 30.81C30.0099 30.7114 30.0653 30.5778 30.0653 30.4385V28.8624H30.5907C31.0087 28.8624 31.4095 28.6963 31.7051 28.4008C32.0007 28.1052 32.1667 27.7043 32.1667 27.2863V12.5761C32.1667 12.1581 32.0007 11.7572 31.7051 11.4616C31.4095 11.1661 31.0087 11 30.5907 11ZM13.2536 29.9131H11.1522V28.8624H13.2536V29.9131ZM29.0146 29.9131H26.9131V28.8624H29.0146V29.9131ZM31.116 27.2863C31.116 27.4256 31.0607 27.5593 30.9621 27.6578C30.8636 27.7563 30.73 27.8117 30.5907 27.8117H9.57609C9.43676 27.8117 9.30313 27.7563 9.2046 27.6578C9.10608 27.5593 9.05073 27.4256 9.05073 27.2863V12.5761C9.05073 12.4368 9.10608 12.3031 9.2046 12.2046C9.30313 12.1061 9.43676 12.0507 9.57609 12.0507H30.5907C30.73 12.0507 30.8636 12.1061 30.9621 12.2046C31.0607 12.3031 31.116 12.4368 31.116 12.5761V27.2863Z" fill="#414141"/>
<path d="M28.4892 21.5073H27.4385C27.2991 21.5073 27.1655 21.4519 27.067 21.3534C26.9684 21.2549 26.9131 21.1212 26.9131 20.9819C26.9131 20.8426 26.9684 20.7089 27.067 20.6104C27.1655 20.5119 27.2991 20.4565 27.4385 20.4565H28.4892C28.6285 20.4565 28.7621 20.5119 28.8607 20.6104C28.9592 20.7089 29.0145 20.8426 29.0145 20.9819C29.0145 21.1212 28.9592 21.2549 28.8607 21.3534C28.7621 21.4519 28.6285 21.5073 28.4892 21.5073Z" fill="#BEC6C6"/>
<path d="M25.337 21.5073H24.2862C24.1469 21.5073 24.0133 21.4519 23.9147 21.3534C23.8162 21.2549 23.7609 21.1212 23.7609 20.9819C23.7609 20.8426 23.8162 20.7089 23.9147 20.6104C24.0133 20.5119 24.1469 20.4565 24.2862 20.4565H25.337C25.4763 20.4565 25.6099 20.5119 25.7084 20.6104C25.807 20.7089 25.8623 20.8426 25.8623 20.9819C25.8623 21.1212 25.807 21.2549 25.7084 21.3534C25.6099 21.4519 25.4763 21.5073 25.337 21.5073Z" fill="#BEC6C6"/>
<path d="M28.4892 23.6088H27.4385C27.2991 23.6088 27.1655 23.5535 27.067 23.455C26.9684 23.3564 26.9131 23.2228 26.9131 23.0835C26.9131 22.9441 26.9684 22.8105 27.067 22.712C27.1655 22.6135 27.2991 22.5581 27.4385 22.5581H28.4892C28.6285 22.5581 28.7621 22.6135 28.8607 22.712C28.9592 22.8105 29.0145 22.9441 29.0145 23.0835C29.0145 23.2228 28.9592 23.3564 28.8607 23.455C28.7621 23.5535 28.6285 23.6088 28.4892 23.6088Z" fill="#BEC6C6"/>
<path d="M25.337 23.6088H24.2862C24.1469 23.6088 24.0133 23.5535 23.9147 23.455C23.8162 23.3564 23.7609 23.2228 23.7609 23.0835C23.7609 22.9441 23.8162 22.8105 23.9147 22.712C24.0133 22.6135 24.1469 22.5581 24.2862 22.5581H25.337C25.4763 22.5581 25.6099 22.6135 25.7084 22.712C25.807 22.8105 25.8623 22.9441 25.8623 23.0835C25.8623 23.2228 25.807 23.3564 25.7084 23.455C25.6099 23.5535 25.4763 23.6088 25.337 23.6088Z" fill="#BEC6C6"/>
<path d="M19.9941 20.7873L19.4687 20.4879C19.5418 20.2205 19.5612 19.9414 19.526 19.6665C19.4907 19.3916 19.4014 19.1263 19.2632 18.8861C19.125 18.6458 18.9407 18.4353 18.7208 18.2666C18.5009 18.0979 18.2498 17.9744 17.9819 17.9031V17.3042C17.9819 17.1648 17.9266 17.0312 17.8281 16.9327C17.7295 16.8342 17.5959 16.7788 17.4566 16.7788C17.3172 16.7788 17.1836 16.8342 17.0851 16.9327C16.9866 17.0312 16.9312 17.1648 16.9312 17.3042V17.9031C16.6629 17.9738 16.4112 18.0969 16.1908 18.2654C15.9703 18.4338 15.7854 18.6443 15.6466 18.8846C15.5079 19.1249 15.4182 19.3903 15.3826 19.6655C15.347 19.9407 15.3662 20.2202 15.4392 20.4879L14.9138 20.7873C14.8126 20.8447 14.7333 20.934 14.6883 21.0413C14.6433 21.1486 14.6352 21.2677 14.6653 21.3801C14.6953 21.4925 14.7618 21.5917 14.8544 21.6622C14.9469 21.7328 15.0602 21.7706 15.1765 21.7698C15.3709 21.7698 15.4654 21.6857 15.954 21.402C16.1496 21.6006 16.3827 21.7583 16.6397 21.8659C16.8968 21.9735 17.1726 22.0289 17.4513 22.0289C17.73 22.0289 18.0059 21.9735 18.2629 21.8659C18.52 21.7583 18.7531 21.6006 18.9486 21.402C19.4477 21.691 19.5318 21.7698 19.7262 21.7698C19.8429 21.7718 19.9571 21.7348 20.0505 21.6647C20.1439 21.5946 20.2113 21.4954 20.242 21.3827C20.2728 21.27 20.2651 21.1503 20.2202 21.0425C20.1753 20.9347 20.0957 20.8449 19.9941 20.7873ZM17.4566 20.9817C17.2488 20.9817 17.0456 20.9201 16.8728 20.8046C16.7 20.6892 16.5654 20.5251 16.4858 20.3331C16.4063 20.1411 16.3855 19.9298 16.426 19.726C16.4666 19.5222 16.5667 19.335 16.7136 19.188C16.8605 19.0411 17.0478 18.941 17.2516 18.9005C17.4554 18.8599 17.6667 18.8807 17.8587 18.9602C18.0507 19.0398 18.2148 19.1744 18.3302 19.3472C18.4457 19.52 18.5073 19.7232 18.5073 19.931C18.5073 20.2097 18.3966 20.4769 18.1996 20.674C18.0025 20.871 17.7352 20.9817 17.4566 20.9817Z" fill="#F8F9F9"/>
</svg>
