<svg width="40" height="41" viewBox="0 0 40 41" fill="none" xmlns="http://www.w3.org/2000/svg">
<rect y="0.59082" width="40" height="40" rx="8" fill="#E9E9E9"/>
<path d="M30.4386 32.0413H10.137L10.6712 29.9043H29.9044L30.4386 32.0413Z" fill="#BEC6C6"/>
<path d="M28.3017 27.7673H12.274V29.9044H28.3017V27.7673Z" fill="#F8F9F9"/>
<path d="M27.2331 27.7675H13.3425V19.7537C13.3425 17.9116 14.0743 16.1451 15.3768 14.8426C16.6793 13.5401 18.4458 12.8083 20.2878 12.8083C22.1298 12.8083 23.8964 13.5401 25.1989 14.8426C26.5014 16.1451 27.2331 17.9116 27.2331 19.7537V27.7675Z" fill="#F8F9F9"/>
<path d="M20.288 17.6165C19.8199 17.6193 19.3657 17.7757 18.9952 18.0616C18.6247 18.3476 18.3583 18.7473 18.2369 19.1994C18.1155 19.6514 18.146 20.1308 18.3235 20.5639C18.501 20.997 18.8157 21.3598 19.2194 21.5966V25.096H21.3565V21.5966C21.7602 21.3598 22.075 20.997 22.2525 20.5639C22.43 20.1308 22.4604 19.6514 22.339 19.1994C22.2177 18.7473 21.9513 18.3476 21.5807 18.0616C21.2102 17.7757 20.756 17.6193 20.288 17.6165Z" fill="#DE1B0A"/>
<path d="M26.6989 25.0962H13.8768V27.2332H26.6989V25.0962Z" fill="#BEC6C6"/>
<path d="M32.0414 31.5071H30.8554L30.4387 29.7761C30.4094 29.6575 30.3404 29.5526 30.2432 29.4787C30.146 29.4049 30.0265 29.3665 29.9044 29.3701H28.8359V27.7673C28.8359 27.6256 28.7796 27.4897 28.6794 27.3895C28.5792 27.2893 28.4433 27.233 28.3017 27.233H27.7674V19.7535C27.7674 17.7698 26.9794 15.8673 25.5767 14.4646C24.174 13.0619 22.2715 12.2739 20.2878 12.2739C18.3041 12.2739 16.4017 13.0619 14.999 14.4646C13.5963 15.8673 12.8083 17.7698 12.8083 19.7535V27.233H12.274C12.1323 27.233 11.9964 27.2893 11.8963 27.3895C11.7961 27.4897 11.7398 27.6256 11.7398 27.7673V29.3701H10.6713C10.5492 29.3665 10.4296 29.4049 10.3324 29.4787C10.2352 29.5526 10.1663 29.6575 10.137 29.7761L9.7203 31.5071H8.53425C8.39256 31.5071 8.25667 31.5634 8.15648 31.6635C8.05629 31.7637 8 31.8996 8 32.0413C8 32.183 8.05629 32.3189 8.15648 32.4191C8.25667 32.5193 8.39256 32.5756 8.53425 32.5756H32.0414C32.1831 32.5756 32.319 32.5193 32.4192 32.4191C32.5194 32.3189 32.5757 32.183 32.5757 32.0413C32.5757 31.8996 32.5194 31.7637 32.4192 31.6635C32.319 31.5634 32.1831 31.5071 32.0414 31.5071ZM13.8768 19.7535C13.8768 18.0532 14.5522 16.4225 15.7545 15.2202C16.9569 14.0179 18.5875 13.3424 20.2878 13.3424C21.9882 13.3424 23.6188 14.0179 24.8211 15.2202C26.0234 16.4225 26.6989 18.0532 26.6989 19.7535V27.233H13.8768V19.7535ZM12.8083 28.3015H27.7674V29.3701H12.8083V28.3015ZM10.8209 31.5071L11.088 30.4386H29.4877L29.7548 31.5071H10.8209Z" fill="#414141"/>
<path d="M20.2878 10.6713C20.1461 10.6713 20.0102 10.615 19.91 10.5148C19.8098 10.4146 19.7535 10.2787 19.7535 10.137V8.53425C19.7535 8.39256 19.8098 8.25667 19.91 8.15648C20.0102 8.05629 20.1461 8 20.2878 8C20.4295 8 20.5654 8.05629 20.6656 8.15648C20.7658 8.25667 20.822 8.39256 20.822 8.53425V10.137C20.822 10.2787 20.7658 10.4146 20.6656 10.5148C20.5654 10.615 20.4295 10.6713 20.2878 10.6713Z" fill="#414141"/>
<path d="M15.2125 12.0336C15.1183 12.034 15.0258 12.0095 14.9441 11.9626C14.8625 11.9157 14.7947 11.848 14.7477 11.7665L13.9463 10.3774C13.9112 10.3164 13.8885 10.2491 13.8794 10.1792C13.8704 10.1094 13.8752 10.0385 13.8935 9.97054C13.9119 9.90257 13.9435 9.83889 13.9864 9.78312C14.0294 9.72735 14.0829 9.68059 14.144 9.64551C14.205 9.61043 14.2724 9.58772 14.3422 9.57867C14.412 9.56962 14.4829 9.57441 14.5509 9.59276C14.6188 9.61112 14.6825 9.64268 14.7383 9.68565C14.7941 9.72862 14.8408 9.78215 14.8759 9.84319L15.6773 11.2322C15.7243 11.3136 15.7489 11.4059 15.7489 11.4999C15.7488 11.5939 15.7239 11.6861 15.6767 11.7674C15.6296 11.8487 15.5619 11.9161 15.4803 11.9628C15.3988 12.0096 15.3064 12.034 15.2125 12.0336Z" fill="#414141"/>
<path d="M11.494 15.7467C11.307 15.7467 11.3658 15.7467 9.84319 14.8759C9.71991 14.805 9.62983 14.6881 9.59276 14.5509C9.55569 14.4136 9.57467 14.2672 9.64551 14.144C9.71636 14.0207 9.83327 13.9306 9.97054 13.8935C10.1078 13.8565 10.2542 13.8754 10.3774 13.9463L11.7665 14.7477C11.8699 14.8062 11.9508 14.8975 11.9964 15.0072C12.0421 15.1168 12.0499 15.2385 12.0187 15.3531C11.9874 15.4677 11.9189 15.5686 11.8238 15.6399C11.7288 15.7112 11.6128 15.7488 11.494 15.7467Z" fill="#414141"/>
<path d="M10.137 20.8222H8.53425C8.39256 20.8222 8.25667 20.7659 8.15648 20.6657C8.05629 20.5655 8 20.4296 8 20.2879C8 20.1462 8.05629 20.0103 8.15648 19.9101C8.25667 19.8099 8.39256 19.7537 8.53425 19.7537H10.137C10.2787 19.7537 10.4146 19.8099 10.5148 19.9101C10.615 20.0103 10.6713 20.1462 10.6713 20.2879C10.6713 20.4296 10.615 20.5655 10.5148 20.6657C10.4146 20.7659 10.2787 20.8222 10.137 20.8222Z" fill="#414141"/>
<path d="M25.3632 12.0336C25.2692 12.034 25.1768 12.0096 25.0953 11.9629C25.0138 11.9161 24.946 11.8487 24.8989 11.7674C24.8517 11.6861 24.8269 11.5939 24.8268 11.4999C24.8267 11.4059 24.8514 11.3136 24.8984 11.2322L25.6997 9.84319C25.7706 9.71991 25.8875 9.62983 26.0248 9.59276C26.162 9.55569 26.3084 9.57467 26.4317 9.64551C26.5549 9.71636 26.645 9.83327 26.6821 9.97054C26.7192 10.1078 26.7002 10.2542 26.6293 10.3774L25.828 11.7665C25.7809 11.848 25.7131 11.9157 25.6315 11.9626C25.5499 12.0095 25.4573 12.034 25.3632 12.0336Z" fill="#414141"/>
<path d="M29.0818 15.7467C28.9653 15.743 28.8532 15.7012 28.7627 15.6279C28.6721 15.5545 28.608 15.4535 28.5802 15.3404C28.5523 15.2272 28.5623 15.108 28.6085 15.001C28.6546 14.894 28.7346 14.805 28.836 14.7477L30.2251 13.9463C30.2861 13.9112 30.3535 13.8885 30.4233 13.8794C30.4931 13.8704 30.564 13.8752 30.632 13.8935C30.7 13.9119 30.7636 13.9435 30.8194 13.9864C30.8752 14.0294 30.9219 14.0829 30.957 14.144C30.9921 14.205 31.0148 14.2724 31.0239 14.3422C31.0329 14.412 31.0281 14.4829 31.0098 14.5509C30.9914 14.6188 30.9598 14.6825 30.9169 14.7383C30.8739 14.7941 30.8204 14.8408 30.7593 14.8759C29.21 15.7521 29.2688 15.7467 29.0818 15.7467Z" fill="#414141"/>
<path d="M32.0414 20.8222H30.4387C30.297 20.8222 30.1611 20.7659 30.0609 20.6657C29.9607 20.5655 29.9044 20.4296 29.9044 20.2879C29.9044 20.1462 29.9607 20.0103 30.0609 19.9101C30.1611 19.8099 30.297 19.7537 30.4387 19.7537H32.0414C32.1831 19.7537 32.319 19.8099 32.4192 19.9101C32.5194 20.0103 32.5757 20.1462 32.5757 20.2879C32.5757 20.4296 32.5194 20.5655 32.4192 20.6657C32.319 20.7659 32.1831 20.8222 32.0414 20.8222Z" fill="#414141"/>
</svg>
